<svg xmlns="http://www.w3.org/2000/svg" viewBox="0 0 160 160" fill="none"><circle cx="80" cy="80" r="72" stroke="white" stroke-width="2"/><circle cx="80" cy="80" r="62" stroke="white" stroke-width="1.5" stroke-dasharray="4 4"/><path d="M 80 16 Q 120 50 144 80 Q 120 110 80 144 Q 40 110 16 80 Q 40 50 80 16 Z" fill="none" stroke="white" stroke-width="1.5"/><path d="M 80 30 C 95 50 110 65 130 80 C 110 95 95 110 80 130 C 65 110 50 95 30 80 C 50 65 65 50 80 30 Z" fill="white" opacity="0.35"/><circle cx="80" cy="80" r="14" fill="white"/><polygon points="80,56 86,74 104,80 86,86 80,104 74,86 56,80 74,74" fill="white"/></svg>
