<svg xmlns="http://www.w3.org/2000/svg" viewBox="0 0 320 48" fill="none"><path d="M 10 24 Q 80 18 140 24 L 140 26 Q 80 20 10 26 Z" fill="white"/><path d="M 310 24 Q 240 18 180 24 L 180 26 Q 240 20 310 26 Z" fill="white"/><polygon points="160,8 174,24 160,40 146,24" fill="white"/><path d="M 160 14 C 168 8 182 14 176 24 C 182 34 168 40 160 34 C 152 40 138 34 144 24 C 138 14 152 8 160 14 Z" fill="white" opacity="0.5"/><path d="M 120 22 C 126 14 136 16 138 23 C 130 25 124 24 120 22 Z" fill="white"/><path d="M 200 22 C 194 14 184 16 182 23 C 190 25 196 24 200 22 Z" fill="white"/></svg>
