<svg xmlns="http://www.w3.org/2000/svg" viewBox="0 0 200 150" fill="none"><path d="M 0 0 C 40 10 90 20 130 50 C 160 72 175 105 185 145 C 182 146 179 144 177 140 C 168 102 153 72 125 52 C 88 25 40 14 0 4 Z" fill="white"/><path d="M 40 14 C 48 4 64 2 72 10 C 64 16 52 18 40 14 Z" fill="white"/><path d="M 70 24 C 82 12 98 14 104 26 C 94 30 80 28 70 24 Z" fill="white"/><path d="M 105 40 C 122 28 138 34 142 48 C 130 50 115 46 105 40 Z" fill="white"/><path d="M 135 65 C 154 55 168 64 170 78 C 158 78 144 72 135 65 Z" fill="white"/><path d="M 160 98 C 178 92 188 104 186 118 C 176 114 166 106 160 98 Z" fill="white"/><circle cx="160" cy="40" r="4" fill="white"/><path d="M 0 0 L 190 0 L 190 4 L 4 4 L 4 140 L 0 140 Z" fill="white" opacity="0.5"/></svg>
