<svg xmlns="http://www.w3.org/2000/svg" viewBox="0 0 130 100" fill="none"><path d="M 130 100 C 100 92 65 82 35 60 C 15 45 5 22 0 0 C 3 1 5 3 7 6 C 14 26 24 45 42 58 C 70 76 102 85 130 96 Z" fill="white"/><path d="M 98 88 C 88 96 74 94 68 84 C 76 80 88 80 98 88 Z" fill="white"/><path d="M 72 74 C 58 84 44 80 40 68 C 50 66 62 68 72 74 Z" fill="white"/><path d="M 48 55 C 32 64 22 56 20 44 C 30 44 40 48 48 55 Z" fill="white"/><path d="M 130 100 L 10 100 L 10 96 L 126 96 L 126 10 L 130 10 Z" fill="white" opacity="0.5"/></svg>
